<svg xmlns="http://www.w3.org/2000/svg" xmlns:xlink="http://www.w3.org/1999/xlink" width="500" zoomAndPan="magnify" viewBox="0 0 375 374.999991" height="500" preserveAspectRatio="xMidYMid meet" version="1.0"><defs><clipPath id="c3f42ff4ba"><path d="M 94.863281 94.863281 L 280.113281 94.863281 L 280.113281 280.113281 L 94.863281 280.113281 Z M 94.863281 94.863281 " clip-rule="nonzero"/></clipPath><clipPath id="122a236378"><path d="M 112.863281 94.863281 L 262.136719 94.863281 C 272.078125 94.863281 280.136719 102.921875 280.136719 112.863281 L 280.136719 262.136719 C 280.136719 272.078125 272.078125 280.136719 262.136719 280.136719 L 112.863281 280.136719 C 102.921875 280.136719 94.863281 272.078125 94.863281 262.136719 L 94.863281 112.863281 C 94.863281 102.921875 102.921875 94.863281 112.863281 94.863281 Z M 112.863281 94.863281 " clip-rule="nonzero"/></clipPath><clipPath id="a5c1660762"><path d="M 129.332031 128.835938 L 183.226562 128.835938 L 183.226562 182.730469 L 129.332031 182.730469 Z M 129.332031 128.835938 " clip-rule="nonzero"/></clipPath><clipPath id="0cc7947846"><path d="M 136.832031 128.835938 L 175.730469 128.835938 C 179.871094 128.835938 183.226562 132.191406 183.226562 136.332031 L 183.226562 175.230469 C 183.226562 179.371094 179.871094 182.730469 175.730469 182.730469 L 136.832031 182.730469 C 132.691406 182.730469 129.332031 179.371094 129.332031 175.230469 L 129.332031 136.332031 C 129.332031 132.191406 132.691406 128.835938 136.832031 128.835938 Z M 136.832031 128.835938 " clip-rule="nonzero"/></clipPath><clipPath id="9162e4a1e2"><path d="M 193.941406 128.835938 L 247.835938 128.835938 L 247.835938 182.730469 L 193.941406 182.730469 Z M 193.941406 128.835938 " clip-rule="nonzero"/></clipPath><clipPath id="46a9ec71c7"><path d="M 220.886719 128.835938 C 206.003906 128.835938 193.941406 140.898438 193.941406 155.78125 C 193.941406 170.664062 206.003906 182.730469 220.886719 182.730469 C 235.769531 182.730469 247.835938 170.664062 247.835938 155.78125 C 247.835938 140.898438 235.769531 128.835938 220.886719 128.835938 Z M 220.886719 128.835938 " clip-rule="nonzero"/></clipPath><clipPath id="9ea91d817c"><path d="M 125.097656 190 L 187 190 L 187 243.75 L 125.097656 243.75 Z M 125.097656 190 " clip-rule="nonzero"/></clipPath><clipPath id="d955387852"><path d="M 158.515625 191.40625 L 186.238281 239.925781 C 186.703125 240.734375 186.699219 241.726562 186.230469 242.53125 C 185.765625 243.335938 184.902344 243.832031 183.972656 243.832031 L 128.59375 243.832031 C 127.660156 243.832031 126.800781 243.335938 126.332031 242.53125 C 125.867188 241.726562 125.863281 240.734375 126.324219 239.925781 L 154.050781 191.40625 C 154.507812 190.605469 155.359375 190.109375 156.28125 190.109375 C 157.203125 190.109375 158.058594 190.605469 158.515625 191.40625 Z M 158.515625 191.40625 " clip-rule="nonzero"/></clipPath></defs><rect x="-37.5" width="450" fill="#ffffff" y="-37.499999" height="449.999989" fill-opacity="1"/><rect x="-37.5" width="450" fill="#0c0c10" y="-37.499999" height="449.999989" fill-opacity="1"/><g clip-path="url(#c3f42ff4ba)"><g clip-path="url(#122a236378)"><path stroke-linecap="butt" transform="matrix(0.75, 0, 0, 0.75, 94.863001, 94.862996)" fill="none" stroke-linejoin="miter" d="M 24.000376 0.000380106 L 223.031639 0.000380106 C 236.286848 0.000380106 247.03164 10.745172 247.03164 24.000382 L 247.03164 223.031645 C 247.03164 236.286854 236.286848 247.031646 223.031639 247.031646 L 24.000376 247.031646 C 10.745166 247.031646 0.000374106 236.286854 0.000374106 223.031645 L 0.000374106 24.000382 C 0.000374106 10.745172 10.745166 0.000380106 24.000376 0.000380106 Z M 24.000376 0.000380106 " stroke="#bc1d3a" stroke-width="28" stroke-opacity="1" stroke-miterlimit="4"/></g></g><g clip-path="url(#a5c1660762)"><g clip-path="url(#0cc7947846)"><path stroke-linecap="butt" transform="matrix(0.75, 0, 0, 0.75, 129.333013, 128.834288)" fill="none" stroke-linejoin="miter" d="M 9.998692 0.00219888 L 61.863279 0.00219888 C 67.384112 0.00219888 71.858071 4.476158 71.858071 9.996991 L 71.858071 61.861578 C 71.858071 67.382412 67.384112 71.861579 61.863279 71.861579 L 9.998692 71.861579 C 4.477858 71.861579 -0.00130874 67.382412 -0.00130874 61.861578 L -0.00130874 9.996991 C -0.00130874 4.476158 4.477858 0.00219888 9.998692 0.00219888 Z M 9.998692 0.00219888 " stroke="#bc1d3a" stroke-width="28" stroke-opacity="1" stroke-miterlimit="4"/></g></g><g clip-path="url(#9162e4a1e2)"><g clip-path="url(#46a9ec71c7)"><path stroke-linecap="butt" transform="matrix(0.75, 0, 0, 0.75, 193.940572, 128.834288)" fill="none" stroke-linejoin="miter" d="M 35.928198 0.00219888 C 16.084447 0.00219888 0.00111265 16.085533 0.00111265 35.929285 C 0.00111265 55.773036 16.084447 71.861579 35.928198 71.861579 C 55.77195 71.861579 71.860492 55.773036 71.860492 35.929285 C 71.860492 16.085533 55.77195 0.00219888 35.928198 0.00219888 Z M 35.928198 0.00219888 " stroke="#bc1d3a" stroke-width="28" stroke-opacity="1" stroke-miterlimit="4"/></g></g><g clip-path="url(#9ea91d817c)"><g clip-path="url(#d955387852)"><path stroke-linecap="butt" transform="matrix(0.75, 0, 0, 0.75, 124.092565, 187.499988)" fill="none" stroke-linejoin="miter" d="M 45.897416 5.20835 L 82.86096 69.901063 C 83.480752 70.979188 83.475544 72.302104 82.850544 73.375021 C 82.230752 74.447938 81.07971 75.109396 79.840127 75.109396 L 6.00158 75.109396 C 4.756788 75.109396 3.610955 74.447938 2.985955 73.375021 C 2.366163 72.302104 2.360955 70.979188 2.975538 69.901063 L 39.944291 5.20835 C 40.553666 4.140642 41.689083 3.479183 42.918249 3.479183 C 44.147416 3.479183 45.288041 4.140642 45.897416 5.20835 Z M 45.897416 5.20835 " stroke="#bc1d3a" stroke-width="28" stroke-opacity="1" stroke-miterlimit="4"/></g></g><path stroke-linecap="round" transform="matrix(0.914991, -0.914991, 0.914991, 0.914991, 192.706941, 238.299505)" fill="none" stroke-linejoin="miter" d="M 4.499053 4.500448 L 48.104315 4.500448 " stroke="#bc1d3a" stroke-width="9" stroke-opacity="1" stroke-miterlimit="4"/><path stroke-linecap="round" transform="matrix(-0.914991, -0.914991, 0.914991, -0.914991, 240.829779, 246.534418)" fill="none" stroke-linejoin="miter" d="M 4.500202 4.498394 L 48.103329 4.500528 " stroke="#bc1d3a" stroke-width="9" stroke-opacity="1" stroke-miterlimit="4"/></svg>