<svg xmlns="http://www.w3.org/2000/svg" xmlns:xlink="http://www.w3.org/1999/xlink" width="500" zoomAndPan="magnify" viewBox="0 0 375 374.999991" height="500" preserveAspectRatio="xMidYMid meet" version="1.0"><defs><g/><clipPath id="eae3ee6f6d"><path d="M 80.90625 158.953125 L 139.40625 158.953125 L 139.40625 217.453125 L 80.90625 217.453125 Z M 80.90625 158.953125 " clip-rule="nonzero"/></clipPath><clipPath id="a30f492f68"><path d="M 98.902344 158.953125 L 121.652344 158.953125 C 126.425781 158.953125 131.003906 160.847656 134.378906 164.222656 C 137.753906 167.597656 139.652344 172.175781 139.652344 176.949219 L 139.652344 199.699219 C 139.652344 204.472656 137.753906 209.050781 134.378906 212.425781 C 131.003906 215.800781 126.425781 217.699219 121.652344 217.699219 L 98.902344 217.699219 C 94.128906 217.699219 89.550781 215.800781 86.175781 212.425781 C 82.800781 209.050781 80.90625 204.472656 80.90625 199.699219 L 80.90625 176.949219 C 80.90625 172.175781 82.800781 167.597656 86.175781 164.222656 C 89.550781 160.847656 94.128906 158.953125 98.902344 158.953125 Z M 98.902344 158.953125 " clip-rule="nonzero"/></clipPath><clipPath id="73953e7253"><path d="M 91.835938 169.726562 L 108.921875 169.726562 L 108.921875 186.8125 L 91.835938 186.8125 Z M 91.835938 169.726562 " clip-rule="nonzero"/></clipPath><clipPath id="c21941b399"><path d="M 99.332031 169.726562 L 101.425781 169.726562 C 103.414062 169.726562 105.320312 170.515625 106.726562 171.921875 C 108.132812 173.328125 108.921875 175.234375 108.921875 177.222656 L 108.921875 179.3125 C 108.921875 181.300781 108.132812 183.210938 106.726562 184.613281 C 105.320312 186.019531 103.414062 186.8125 101.425781 186.8125 L 99.332031 186.8125 C 97.34375 186.8125 95.4375 186.019531 94.03125 184.613281 C 92.625 183.210938 91.835938 181.300781 91.835938 179.3125 L 91.835938 177.222656 C 91.835938 175.234375 92.625 173.328125 94.03125 171.921875 C 95.4375 170.515625 97.34375 169.726562 99.332031 169.726562 Z M 99.332031 169.726562 " clip-rule="nonzero"/></clipPath><clipPath id="de55a83dce"><path d="M 112.324219 169.726562 L 129.410156 169.726562 L 129.410156 186.8125 L 112.324219 186.8125 Z M 112.324219 169.726562 " clip-rule="nonzero"/></clipPath><clipPath id="9b59752b89"><path d="M 120.867188 169.726562 C 116.148438 169.726562 112.324219 173.550781 112.324219 178.269531 C 112.324219 182.984375 116.148438 186.8125 120.867188 186.8125 C 125.585938 186.8125 129.410156 182.984375 129.410156 178.269531 C 129.410156 173.550781 125.585938 169.726562 120.867188 169.726562 Z M 120.867188 169.726562 " clip-rule="nonzero"/></clipPath><clipPath id="c16b3eb876"><path d="M 92 190.878906 L 108.992188 190.878906 L 108.992188 206.1875 L 92 206.1875 Z M 92 190.878906 " clip-rule="nonzero"/></clipPath><clipPath id="c22789612e"><path d="M 102.613281 192.234375 L 108.355469 202.28125 C 108.816406 203.089844 108.8125 204.082031 108.347656 204.886719 C 107.878906 205.691406 107.019531 206.1875 106.089844 206.1875 L 94.675781 206.1875 C 93.742188 206.1875 92.882812 205.691406 92.417969 204.886719 C 91.949219 204.082031 91.945312 203.089844 92.40625 202.28125 L 98.148438 192.234375 C 98.605469 191.433594 99.457031 190.9375 100.382812 190.9375 C 101.304688 190.9375 102.15625 191.433594 102.613281 192.234375 Z M 102.613281 192.234375 " clip-rule="nonzero"/></clipPath></defs><g fill="#bc1d3a" fill-opacity="1"><g transform="translate(143.433232, 194.893888)"><g><path d="M 15.21875 0.859375 C 22.921875 0.859375 28.75 -2.21875 28.75 -9.609375 C 28.75 -14.765625 26.9375 -18 18.390625 -18.5 C 13.9375 -18.75 13.28125 -18.859375 13.28125 -19.59375 C 13.28125 -20.03125 13.46875 -20.46875 14.421875 -20.46875 C 15.578125 -20.46875 15.75 -19.953125 15.8125 -19.515625 L 28.109375 -19.515625 C 28.109375 -25.625 24.421875 -30.0625 14.875 -30.0625 C 6.25 -30.0625 0.6875 -27.15625 0.6875 -19.953125 C 0.6875 -13.921875 2.671875 -11.703125 11.234375 -10.9375 C 14.828125 -10.609375 15.65625 -10.421875 15.65625 -9.546875 C 15.65625 -9.109375 15.390625 -8.71875 14.453125 -8.71875 C 13.1875 -8.71875 13 -9.28125 13 -9.734375 L 0.4375 -9.734375 C 0.4375 -4.578125 3.140625 0.859375 15.21875 0.859375 Z M 15.21875 0.859375 "/></g></g></g><g fill="#bc1d3a" fill-opacity="1"><g transform="translate(172.517909, 194.893888)"><g><path d="M 20.34375 0 L 20.34375 -17.40625 L 26.21875 -17.40625 L 26.21875 -29.21875 L 0.125 -29.21875 L 0.125 -17.40625 L 6.0625 -17.40625 L 6.0625 0 Z M 20.34375 0 "/></g></g></g><g fill="#bc1d3a" fill-opacity="1"><g transform="translate(198.853074, 194.893888)"><g><path d="M 33.125 0 L 26.125 -29.21875 L 6.8125 -29.21875 L -0.171875 0 L 13.921875 0 L 14.203125 -2.1875 L 18.78125 -2.1875 L 19.078125 0 Z M 16.203125 -17.234375 L 16.34375 -18.625 L 16.609375 -18.625 L 16.765625 -17.234375 L 17.625 -10.828125 L 15.359375 -10.828125 Z M 16.203125 -17.234375 "/></g></g></g><g fill="#bc1d3a" fill-opacity="1"><g transform="translate(231.804251, 194.893888)"><g><path d="M 15.625 0 L 15.625 -8.375 L 16.390625 -8.375 L 18.328125 0 L 31.921875 0 L 27.953125 -11.09375 C 29.625 -12.53125 31.28125 -14.765625 31.28125 -18.21875 C 31.28125 -26.96875 25.4375 -29.21875 16.390625 -29.21875 L 1.53125 -29.21875 L 1.53125 0 Z M 15.515625 -19.421875 L 16.890625 -19.421875 C 17.890625 -19.421875 18.140625 -18.734375 18.140625 -17.8125 C 18.140625 -16.515625 17.796875 -16.078125 16.96875 -16.078125 L 15.515625 -16.078125 Z M 15.515625 -19.421875 "/></g></g></g><g fill="#bc1d3a" fill-opacity="1"><g transform="translate(263.960648, 194.893888)"><g><path d="M 20.34375 0 L 20.34375 -17.40625 L 26.21875 -17.40625 L 26.21875 -29.21875 L 0.125 -29.21875 L 0.125 -17.40625 L 6.0625 -17.40625 L 6.0625 0 Z M 20.34375 0 "/></g></g></g><g fill="#bc1d3a" fill-opacity="1"><g transform="translate(159.991195, 214.343907)"><g><path d="M 6.203125 0 L 5.703125 0 L 1.46875 -6.34375 L 1.4375 -6.34375 C 1.46875 -5.582031 1.484375 -5.007812 1.484375 -4.625 L 1.484375 0 L 1.015625 0 L 1.015625 -7.140625 L 1.515625 -7.140625 L 5.734375 -0.8125 L 5.765625 -0.8125 C 5.734375 -1.394531 5.71875 -1.953125 5.71875 -2.484375 L 5.71875 -7.140625 L 6.203125 -7.140625 Z M 6.203125 0 "/></g></g></g><g fill="#bc1d3a" fill-opacity="1"><g transform="translate(170.20038, 214.343907)"><g><path d="M 4.90625 0 L 1.015625 0 L 1.015625 -7.140625 L 4.90625 -7.140625 L 4.90625 -6.6875 L 1.515625 -6.6875 L 1.515625 -3.984375 L 4.71875 -3.984375 L 4.71875 -3.515625 L 1.515625 -3.515625 L 1.515625 -0.453125 L 4.90625 -0.453125 Z M 4.90625 0 "/></g></g></g><g fill="#bc1d3a" fill-opacity="1"><g transform="translate(178.715885, 214.343907)"><g><path d="M 6.703125 0 L 6.296875 0 L 4.71875 -5.515625 C 4.59375 -5.960938 4.492188 -6.332031 4.421875 -6.625 C 4.367188 -6.34375 4.296875 -6.015625 4.203125 -5.640625 C 4.109375 -5.273438 3.582031 -3.394531 2.625 0 L 2.21875 0 L 0.25 -7.140625 L 0.765625 -7.140625 L 2.015625 -2.546875 C 2.066406 -2.359375 2.113281 -2.179688 2.15625 -2.015625 C 2.195312 -1.859375 2.234375 -1.710938 2.265625 -1.578125 C 2.304688 -1.441406 2.335938 -1.304688 2.359375 -1.171875 C 2.390625 -1.046875 2.414062 -0.921875 2.4375 -0.796875 C 2.519531 -1.234375 2.6875 -1.90625 2.9375 -2.8125 L 4.15625 -7.140625 L 4.71875 -7.140625 L 6.140625 -2.171875 C 6.304688 -1.597656 6.425781 -1.132812 6.5 -0.78125 C 6.539062 -1.019531 6.59375 -1.269531 6.65625 -1.53125 C 6.726562 -1.789062 7.234375 -3.660156 8.171875 -7.140625 L 8.671875 -7.140625 Z M 6.703125 0 "/></g></g></g><g fill="#bc1d3a" fill-opacity="1"><g transform="translate(190.633386, 214.343907)"><g><path d="M 4.953125 -1.84375 C 4.953125 -1.25 4.734375 -0.773438 4.296875 -0.421875 C 3.859375 -0.078125 3.273438 0.09375 2.546875 0.09375 C 1.671875 0.09375 1.003906 0 0.546875 -0.1875 L 0.546875 -0.6875 C 1.054688 -0.46875 1.710938 -0.359375 2.515625 -0.359375 C 3.097656 -0.359375 3.5625 -0.492188 3.90625 -0.765625 C 4.25 -1.035156 4.421875 -1.390625 4.421875 -1.828125 C 4.421875 -2.097656 4.363281 -2.320312 4.25 -2.5 C 4.132812 -2.675781 3.945312 -2.835938 3.6875 -2.984375 C 3.4375 -3.128906 3.0625 -3.285156 2.5625 -3.453125 C 1.832031 -3.703125 1.328125 -3.972656 1.046875 -4.265625 C 0.765625 -4.554688 0.625 -4.945312 0.625 -5.4375 C 0.625 -5.96875 0.832031 -6.398438 1.25 -6.734375 C 1.675781 -7.066406 2.21875 -7.234375 2.875 -7.234375 C 3.539062 -7.234375 4.171875 -7.109375 4.765625 -6.859375 L 4.578125 -6.4375 C 3.984375 -6.675781 3.414062 -6.796875 2.875 -6.796875 C 2.351562 -6.796875 1.9375 -6.671875 1.625 -6.421875 C 1.3125 -6.179688 1.15625 -5.851562 1.15625 -5.4375 C 1.15625 -5.175781 1.203125 -4.957031 1.296875 -4.78125 C 1.390625 -4.613281 1.546875 -4.460938 1.765625 -4.328125 C 1.984375 -4.191406 2.359375 -4.03125 2.890625 -3.84375 C 3.441406 -3.65625 3.859375 -3.46875 4.140625 -3.28125 C 4.421875 -3.101562 4.625 -2.898438 4.75 -2.671875 C 4.882812 -2.441406 4.953125 -2.164062 4.953125 -1.84375 Z M 4.953125 -1.84375 "/></g></g></g><g fill="#bc1d3a" fill-opacity="1"><g transform="translate(199.080559, 214.343907)"><g/></g></g><g fill="#bc1d3a" fill-opacity="1"><g transform="translate(204.677283, 214.343907)"><g><path d="M 7.015625 -3.578125 C 7.015625 -2.441406 6.726562 -1.546875 6.15625 -0.890625 C 5.59375 -0.234375 4.8125 0.09375 3.8125 0.09375 C 2.820312 0.09375 2.039062 -0.234375 1.46875 -0.890625 C 0.90625 -1.546875 0.625 -2.445312 0.625 -3.59375 C 0.625 -4.726562 0.910156 -5.617188 1.484375 -6.265625 C 2.054688 -6.921875 2.835938 -7.25 3.828125 -7.25 C 4.828125 -7.25 5.609375 -6.921875 6.171875 -6.265625 C 6.734375 -5.609375 7.015625 -4.710938 7.015625 -3.578125 Z M 1.171875 -3.578125 C 1.171875 -2.554688 1.398438 -1.765625 1.859375 -1.203125 C 2.316406 -0.648438 2.96875 -0.375 3.8125 -0.375 C 4.675781 -0.375 5.332031 -0.648438 5.78125 -1.203125 C 6.238281 -1.753906 6.46875 -2.546875 6.46875 -3.578125 C 6.46875 -4.609375 6.238281 -5.394531 5.78125 -5.9375 C 5.332031 -6.488281 4.679688 -6.765625 3.828125 -6.765625 C 2.972656 -6.765625 2.316406 -6.488281 1.859375 -5.9375 C 1.398438 -5.382812 1.171875 -4.597656 1.171875 -3.578125 Z M 1.171875 -3.578125 "/></g></g></g><g fill="#bc1d3a" fill-opacity="1"><g transform="translate(215.315988, 214.343907)"><g><path d="M 1.515625 0 L 1.015625 0 L 1.015625 -7.140625 L 4.921875 -7.140625 L 4.921875 -6.6875 L 1.515625 -6.6875 L 1.515625 -3.65625 L 4.734375 -3.65625 L 4.734375 -3.1875 L 1.515625 -3.1875 Z M 1.515625 0 "/></g></g></g><g fill="#bc1d3a" fill-opacity="1"><g transform="translate(223.333643, 214.343907)"><g/></g></g><g fill="#bc1d3a" fill-opacity="1"><g transform="translate(228.930365, 214.343907)"><g><path d="M 3.8125 -3.59375 L 6.453125 -3.59375 L 6.453125 -0.34375 C 5.765625 -0.0507812 4.988281 0.09375 4.125 0.09375 C 3 0.09375 2.132812 -0.222656 1.53125 -0.859375 C 0.925781 -1.492188 0.625 -2.394531 0.625 -3.5625 C 0.625 -4.289062 0.773438 -4.929688 1.078125 -5.484375 C 1.378906 -6.046875 1.804688 -6.476562 2.359375 -6.78125 C 2.910156 -7.09375 3.546875 -7.25 4.265625 -7.25 C 5.046875 -7.25 5.742188 -7.109375 6.359375 -6.828125 L 6.15625 -6.375 C 5.539062 -6.65625 4.898438 -6.796875 4.234375 -6.796875 C 3.296875 -6.796875 2.550781 -6.503906 2 -5.921875 C 1.445312 -5.347656 1.171875 -4.566406 1.171875 -3.578125 C 1.171875 -2.503906 1.429688 -1.695312 1.953125 -1.15625 C 2.484375 -0.613281 3.253906 -0.34375 4.265625 -0.34375 C 4.921875 -0.34375 5.476562 -0.4375 5.9375 -0.625 L 5.9375 -3.125 L 3.8125 -3.125 Z M 3.8125 -3.59375 "/></g></g></g><g fill="#bc1d3a" fill-opacity="1"><g transform="translate(239.15907, 214.343907)"><g><path d="M 4.453125 -2.515625 L 1.546875 -2.515625 L 0.546875 0 L 0 0 L 2.875 -7.171875 L 3.1875 -7.171875 L 6 0 L 5.4375 0 Z M 1.734375 -2.96875 L 4.28125 -2.96875 L 3.3125 -5.546875 C 3.226562 -5.742188 3.128906 -6.019531 3.015625 -6.375 C 2.929688 -6.0625 2.835938 -5.78125 2.734375 -5.53125 Z M 1.734375 -2.96875 "/></g></g></g><g fill="#bc1d3a" fill-opacity="1"><g transform="translate(248.157788, 214.343907)"><g><path d="M 4.15625 0 L 1.484375 -6.59375 L 1.453125 -6.59375 C 1.472656 -6.1875 1.484375 -5.773438 1.484375 -5.359375 L 1.484375 0 L 1.015625 0 L 1.015625 -7.140625 L 1.78125 -7.140625 L 4.3125 -0.859375 L 4.34375 -0.859375 L 6.875 -7.140625 L 7.625 -7.140625 L 7.625 0 L 7.125 0 L 7.125 -5.40625 C 7.125 -5.789062 7.140625 -6.179688 7.171875 -6.578125 L 7.140625 -6.578125 L 4.46875 0 Z M 4.15625 0 "/></g></g></g><g fill="#bc1d3a" fill-opacity="1"><g transform="translate(259.782432, 214.343907)"><g><path d="M 4.90625 0 L 1.015625 0 L 1.015625 -7.140625 L 4.90625 -7.140625 L 4.90625 -6.6875 L 1.515625 -6.6875 L 1.515625 -3.984375 L 4.71875 -3.984375 L 4.71875 -3.515625 L 1.515625 -3.515625 L 1.515625 -0.453125 L 4.90625 -0.453125 Z M 4.90625 0 "/></g></g></g><g fill="#bc1d3a" fill-opacity="1"><g transform="translate(268.297935, 214.343907)"><g><path d="M 4.953125 -1.84375 C 4.953125 -1.25 4.734375 -0.773438 4.296875 -0.421875 C 3.859375 -0.078125 3.273438 0.09375 2.546875 0.09375 C 1.671875 0.09375 1.003906 0 0.546875 -0.1875 L 0.546875 -0.6875 C 1.054688 -0.46875 1.710938 -0.359375 2.515625 -0.359375 C 3.097656 -0.359375 3.5625 -0.492188 3.90625 -0.765625 C 4.25 -1.035156 4.421875 -1.390625 4.421875 -1.828125 C 4.421875 -2.097656 4.363281 -2.320312 4.25 -2.5 C 4.132812 -2.675781 3.945312 -2.835938 3.6875 -2.984375 C 3.4375 -3.128906 3.0625 -3.285156 2.5625 -3.453125 C 1.832031 -3.703125 1.328125 -3.972656 1.046875 -4.265625 C 0.765625 -4.554688 0.625 -4.945312 0.625 -5.4375 C 0.625 -5.96875 0.832031 -6.398438 1.25 -6.734375 C 1.675781 -7.066406 2.21875 -7.234375 2.875 -7.234375 C 3.539062 -7.234375 4.171875 -7.109375 4.765625 -6.859375 L 4.578125 -6.4375 C 3.984375 -6.675781 3.414062 -6.796875 2.875 -6.796875 C 2.351562 -6.796875 1.9375 -6.671875 1.625 -6.421875 C 1.3125 -6.179688 1.15625 -5.851562 1.15625 -5.4375 C 1.15625 -5.175781 1.203125 -4.957031 1.296875 -4.78125 C 1.390625 -4.613281 1.546875 -4.460938 1.765625 -4.328125 C 1.984375 -4.191406 2.359375 -4.03125 2.890625 -3.84375 C 3.441406 -3.65625 3.859375 -3.46875 4.140625 -3.28125 C 4.421875 -3.101562 4.625 -2.898438 4.75 -2.671875 C 4.882812 -2.441406 4.953125 -2.164062 4.953125 -1.84375 Z M 4.953125 -1.84375 "/></g></g></g><g clip-path="url(#eae3ee6f6d)"><g clip-path="url(#a30f492f68)"><path stroke-linecap="butt" transform="matrix(0.75, 0, 0, 0.75, 80.905583, 158.951884)" fill="none" stroke-linejoin="miter" d="M 23.995682 0.00165472 L 54.329018 0.00165472 C 60.693601 0.00165472 66.797768 2.527697 71.297769 7.027697 C 75.797769 11.527697 78.329019 17.631864 78.329019 23.996448 L 78.329019 54.329783 C 78.329019 60.694367 75.797769 66.798534 71.297769 71.298534 C 66.797768 75.798535 60.693601 78.329785 54.329018 78.329785 L 23.995682 78.329785 C 17.631099 78.329785 11.526932 75.798535 7.026931 71.298534 C 2.526931 66.798534 0.000889084 60.694367 0.000889084 54.329783 L 0.000889084 23.996448 C 0.000889084 17.631864 2.526931 11.527697 7.026931 7.027697 C 11.526932 2.527697 17.631099 0.00165472 23.995682 0.00165472 Z M 23.995682 0.00165472 " stroke="#bc1d3a" stroke-width="8" stroke-opacity="1" stroke-miterlimit="4"/></g></g><g clip-path="url(#73953e7253)"><g clip-path="url(#c21941b399)"><path stroke-linecap="butt" transform="matrix(0.75, 0, 0, 0.75, 91.836738, 169.724886)" fill="none" stroke-linejoin="miter" d="M 9.993725 0.00223579 L 12.785392 0.00223579 C 15.436434 0.00223579 17.978101 1.054319 19.853101 2.929319 C 21.728101 4.804319 22.780185 7.345986 22.780185 9.997028 L 22.780185 12.783487 C 22.780185 15.434528 21.728101 17.981404 19.853101 19.851195 C 17.978101 21.726196 15.436434 22.783487 12.785392 22.783487 L 9.993725 22.783487 C 7.342684 22.783487 4.801017 21.726196 2.926017 19.851195 C 1.051017 17.981404 -0.00106689 15.434528 -0.00106689 12.783487 L -0.00106689 9.997028 C -0.00106689 7.345986 1.051017 4.804319 2.926017 2.929319 C 4.801017 1.054319 7.342684 0.00223579 9.993725 0.00223579 Z M 9.993725 0.00223579 " stroke="#bc1d3a" stroke-width="8" stroke-opacity="1" stroke-miterlimit="4"/></g></g><g clip-path="url(#de55a83dce)"><g clip-path="url(#9b59752b89)"><path stroke-linecap="butt" transform="matrix(0.75, 0, 0, 0.75, 112.325131, 169.724886)" fill="none" stroke-linejoin="miter" d="M 11.38941 0.00223579 C 5.097743 0.00223579 -0.00121597 5.101194 -0.00121597 11.392862 C -0.00121597 17.67932 5.097743 22.783487 11.38941 22.783487 C 17.681077 22.783487 22.780036 17.67932 22.780036 11.392862 C 22.780036 5.101194 17.681077 0.00223579 11.38941 0.00223579 Z M 11.38941 0.00223579 " stroke="#bc1d3a" stroke-width="8" stroke-opacity="1" stroke-miterlimit="4"/></g></g><g clip-path="url(#c16b3eb876)"><g clip-path="url(#c22789612e)"><path stroke-linecap="butt" transform="matrix(0.75, 0, 0, 0.75, 90.176029, 188.329)" fill="none" stroke-linejoin="miter" d="M 16.583005 5.207167 L 24.239256 18.603002 C 24.85384 19.681127 24.848631 21.004044 24.22884 22.076961 C 23.603839 23.149877 22.458006 23.811336 21.218422 23.811336 L 5.99967 23.811336 C 4.754879 23.811336 3.609045 23.149877 2.989253 22.076961 C 2.364253 21.004044 2.359045 19.681127 2.973628 18.603002 L 10.629879 5.207167 C 11.239254 4.139458 12.374671 3.478 13.609046 3.478 C 14.838213 3.478 15.97363 4.139458 16.583005 5.207167 Z M 16.583005 5.207167 " stroke="#bc1d3a" stroke-width="8" stroke-opacity="1" stroke-miterlimit="4"/></g></g><path stroke-linecap="round" transform="matrix(0.290163, -0.290163, 0.290163, 0.290163, 111.933916, 204.438575)" fill="none" stroke-linejoin="miter" d="M 4.504427 4.500723 L 48.108735 4.500723 " stroke="#bc1d3a" stroke-width="9" stroke-opacity="1" stroke-miterlimit="4"/><path stroke-linecap="round" transform="matrix(-0.290163, -0.290163, 0.290163, -0.290163, 127.194663, 207.050041)" fill="none" stroke-linejoin="miter" d="M 4.500736 4.502974 L 48.105045 4.502974 " stroke="#bc1d3a" stroke-width="9" stroke-opacity="1" stroke-miterlimit="4"/></svg>